<?xml version="1.0" standalone="no"?>
<!DOCTYPE svg PUBLIC "-//W3C//DTD SVG 20010904//EN"
 "http://www.w3.org/TR/2001/REC-SVG-20010904/DTD/svg10.dtd">
<svg version="1.0" xmlns="http://www.w3.org/2000/svg"
 width="500.000000pt" height="500.000000pt" viewBox="0 0 500.000000 500.000000"
 preserveAspectRatio="xMidYMid meet">

<g transform="translate(0.000000,500.000000) scale(0.100000,-0.100000)"
fill="#000000" stroke="none">
<path d="M2365 4074 c-256 -46 -489 -270 -550 -526 -21 -89 -21 -412 0 -493
26 -100 69 -178 145 -265 188 -213 447 -319 658 -269 139 33 327 156 432 284
117 141 141 218 147 465 6 220 -6 294 -66 415 -102 206 -278 344 -491 386
-117 22 -165 23 -275 3z m0 -216 c10 -123 6 -119 138 -116 l111 3 8 40 c3 22
9 66 13 98 8 69 15 71 111 23 165 -83 279 -225 320 -402 12 -53 15 -107 12
-234 -4 -147 -7 -173 -30 -238 -33 -91 -90 -166 -185 -243 -261 -212 -466
-211 -728 2 -89 72 -143 140 -178 224 -34 83 -40 126 -39 306 0 141 3 163 27
235 32 96 59 145 121 213 53 59 113 103 194 143 91 45 96 42 105 -54z"/>
<path d="M2044 3518 c-46 -22 -62 -118 -45 -268 9 -77 16 -102 39 -135 55 -79
214 -133 417 -142 258 -12 479 65 526 182 6 17 14 86 16 155 6 143 -6 193 -52
210 -36 14 -873 12 -901 -2z"/>
<path d="M2410 2870 c-26 -26 -12 -60 25 -60 43 0 53 50 14 70 -14 8 -23 6
-39 -10z"/>
<path d="M2537 2878 c-22 -12 -22 -55 1 -66 10 -6 27 -6 40 -1 18 7 23 15 20
35 -3 30 -35 47 -61 32z"/>
<path d="M1928 2590 c-111 -34 -157 -72 -209 -170 -24 -44 -24 -50 -27 -365
l-3 -321 -92 0 c-144 1 -186 -33 -195 -156 l-5 -68 200 0 200 0 19 -42 c10
-24 35 -61 54 -82 36 -40 119 -86 155 -86 16 0 33 -27 82 -128 34 -70 71 -149
82 -175 31 -73 70 -118 126 -143 45 -21 64 -24 185 -24 110 0 143 4 176 19 52
24 109 90 134 157 10 29 47 107 80 174 47 94 65 120 80 120 65 0 155 68 199
150 l32 60 196 0 195 0 -4 75 c-3 66 -7 77 -33 105 -37 38 -83 51 -177 48
l-73 -3 -5 325 c-6 364 -5 363 -79 443 -42 45 -105 79 -178 95 -38 9 -45 7
-102 -33 -264 -184 -496 -208 -748 -78 -47 24 -105 57 -127 72 -73 50 -76 50
-138 31z m176 -352 l26 -23 -71 -70 c-39 -38 -89 -98 -111 -133 l-41 -62 -23
32 c-24 31 -30 75 -16 110 9 22 120 139 147 155 31 19 61 15 89 -9z m946 -56
c81 -82 94 -110 79 -167 -9 -30 -35 -63 -43 -54 -2 2 -19 29 -40 59 -20 30
-68 87 -106 126 -39 40 -70 75 -70 78 0 3 12 12 28 20 52 29 71 21 152 -62z
m-312 -56 c30 -17 63 -43 75 -60 12 -17 50 -62 85 -101 89 -98 115 -145 115
-208 0 -47 -16 -84 -174 -402 -206 -414 -190 -395 -338 -395 -104 0 -144 14
-175 62 -8 13 -90 177 -181 366 -157 323 -167 346 -161 385 10 60 33 99 128
213 136 165 158 174 403 171 168 -2 171 -2 223 -31z"/>
<path d="M2410 1868 c-95 -51 -136 -169 -91 -260 45 -89 144 -135 233 -109 53
16 113 73 134 127 62 163 -122 324 -276 242z"/>
<path d="M954 1850 c-51 -20 -54 -37 -54 -293 l0 -238 62 -82 c65 -86 216
-243 282 -292 66 -50 66 -53 66 428 0 268 -4 425 -10 438 -21 39 -62 49 -197
48 -70 0 -138 -4 -149 -9z"/>
<path d="M3744 1850 c-54 -22 -54 -20 -54 -480 0 -236 4 -431 9 -439 8 -12 16
-9 48 14 64 49 247 236 301 309 l52 69 0 236 c0 234 0 236 -24 266 l-24 30
-144 2 c-78 1 -153 -2 -164 -7z"/>
<path d="M1401 1221 c4 -177 9 -191 79 -238 32 -23 39 -23 321 -23 159 0 289
2 289 5 0 2 -17 38 -37 80 l-37 75 -181 0 c-130 0 -186 4 -198 13 -8 6 -41 65
-72 130 l-56 117 -55 0 -56 0 3 -159z"/>
<path d="M3482 1368 c-5 -7 -27 -53 -48 -102 -20 -49 -48 -102 -62 -117 l-24
-29 -184 0 -184 0 -40 -80 -40 -80 287 0 c280 0 289 1 327 23 66 38 76 69 76
244 l0 153 -49 0 c-27 0 -53 -6 -59 -12z"/>
</g>
</svg>
